<svg width="17" height="13" viewBox="0 0 17 13" fill="none" xmlns="http://www.w3.org/2000/svg">
<g clip-path="url(#clip0_70_609)">
<path d="M16.3626 0H11.2626C10.9124 0 10.4219 0.194187 10.1746 0.430625L3.85141 6.47481C3.79217 6.5314 3.74518 6.5986 3.71312 6.67256C3.68105 6.74651 3.66455 6.82579 3.66455 6.90584C3.66455 6.9859 3.68105 7.06517 3.71312 7.13913C3.74518 7.21309 3.79217 7.28028 3.85141 7.33687L9.32456 12.5686C9.38377 12.6252 9.45406 12.6701 9.53143 12.7008C9.60881 12.7314 9.69174 12.7472 9.77549 12.7472C9.85924 12.7472 9.94217 12.7314 10.0195 12.7008C10.0969 12.6701 10.1672 12.6252 10.2264 12.5686L16.5496 6.52437C16.7978 6.28712 17.0001 5.81913 17.0001 5.48438V0.609375C17.0001 0.447759 16.9329 0.292762 16.8133 0.178482C16.6938 0.0642018 16.5316 0 16.3626 0ZM13.1751 4.875C13.0076 4.87495 12.8417 4.84336 12.687 4.78204C12.5323 4.72072 12.3917 4.63088 12.2733 4.51763C12.1549 4.40438 12.061 4.26995 11.997 4.12202C11.9329 3.97408 11.9 3.81554 11.9001 3.65544C11.9001 3.49534 11.9332 3.33681 11.9973 3.18892C12.0615 3.04102 12.1555 2.90665 12.2739 2.79348C12.3924 2.68031 12.533 2.59055 12.6878 2.52933C12.8426 2.46812 13.0084 2.43663 13.1759 2.43669C13.5142 2.4368 13.8385 2.56535 14.0777 2.79406C14.3168 3.02277 14.451 3.33291 14.4509 3.65625C14.4508 3.97959 14.3163 4.28964 14.0771 4.5182C13.8378 4.74676 13.5133 4.87511 13.1751 4.875Z" fill="#A20000"/>
<path d="M1.69992 6.90625L8.92492 0H7.86242C7.51222 0 7.02177 0.194187 6.77442 0.430625L0.451268 6.47481C0.392028 6.5314 0.345033 6.5986 0.31297 6.67256C0.280907 6.74651 0.264404 6.82579 0.264404 6.90584C0.264404 6.9859 0.280907 7.06517 0.31297 7.13913C0.345033 7.21309 0.392028 7.28028 0.451268 7.33687L5.92442 12.5686C5.98362 12.6252 6.05392 12.6701 6.13129 12.7008C6.20866 12.7314 6.29159 12.7472 6.37534 12.7472C6.4591 12.7472 6.54203 12.7314 6.6194 12.7008C6.69677 12.6701 6.76707 12.6252 6.82627 12.5686L7.22577 12.1867L1.69992 6.90625Z" fill="#A20000"/>
</g>
<defs>
<clipPath id="clip0_70_609">
<rect width="17" height="13" fill="white"/>
</clipPath>
</defs>
</svg>
